<svg xmlns="http://www.w3.org/2000/svg" version="1.1" xmlns:xlink="http://www.w3.org/1999/xlink" xmlns:svgjs="http://svgjs.dev/svgjs" viewBox="0 0 800 800" opacity="1"><defs><linearGradient gradientTransform="rotate(270)" x1="50%" y1="0%" x2="50%" y2="100%" id="sssquiggly-grad"><stop stop-color="#0072ffff" stop-opacity="1" offset="0%"></stop><stop stop-color="#00a2ffff" stop-opacity="1" offset="100%"></stop></linearGradient></defs><g stroke-width="2.5" stroke="url(#sssquiggly-grad)" fill="none" stroke-linecap="round" transform="matrix(1,0,0,1,-5,127.0385856628418)"><path d="M10,10C28.75,12.083333333333334,60.416666666666664,26.041666666666664,100,20C139.58333333333334,13.958333333333334,158.33333333333331,-21.708333333333332,200,-19C241.66666666666669,-16.291666666666668,258.3333333333333,30.916666666666668,300,33C341.6666666666667,35.083333333333336,358.3333333333333,-8.166666666666666,400,-9C441.6666666666667,-9.833333333333334,458.3333333333333,30.458333333333332,500,29C541.6666666666666,27.541666666666668,558.3333333333334,-17.666666666666668,600,-16C641.6666666666666,-14.333333333333334,658.3333333333334,35.125,700,37C741.6666666666666,38.875,779.1666666666666,2.166666666666666,800,-7"></path><path d="M10,10C28.75,12.083333333333334,60.416666666666664,26.041666666666664,100,20C139.58333333333334,13.958333333333334,158.33333333333331,-21.708333333333332,200,-19C241.66666666666669,-16.291666666666668,258.3333333333333,30.916666666666668,300,33C341.6666666666667,35.083333333333336,358.3333333333333,-8.166666666666666,400,-9C441.6666666666667,-9.833333333333334,458.3333333333333,30.458333333333332,500,29C541.6666666666666,27.541666666666668,558.3333333333334,-17.666666666666668,600,-16C641.6666666666666,-14.333333333333334,658.3333333333334,35.125,700,37C741.6666666666666,38.875,779.1666666666666,2.166666666666666,800,-7" transform="matrix(1,0,0,1,0,528)"></path><path d="M10,10C28.75,12.083333333333334,60.416666666666664,26.041666666666664,100,20C139.58333333333334,13.958333333333334,158.33333333333331,-21.708333333333332,200,-19C241.66666666666669,-16.291666666666668,258.3333333333333,30.916666666666668,300,33C341.6666666666667,35.083333333333336,358.3333333333333,-8.166666666666666,400,-9C441.6666666666667,-9.833333333333334,458.3333333333333,30.458333333333332,500,29C541.6666666666666,27.541666666666668,558.3333333333334,-17.666666666666668,600,-16C641.6666666666666,-14.333333333333334,658.3333333333334,35.125,700,37C741.6666666666666,38.875,779.1666666666666,2.166666666666666,800,-7" transform="matrix(1,0,0,1,0,480)"></path><path d="M10,10C28.75,12.083333333333334,60.416666666666664,26.041666666666664,100,20C139.58333333333334,13.958333333333334,158.33333333333331,-21.708333333333332,200,-19C241.66666666666669,-16.291666666666668,258.3333333333333,30.916666666666668,300,33C341.6666666666667,35.083333333333336,358.3333333333333,-8.166666666666666,400,-9C441.6666666666667,-9.833333333333334,458.3333333333333,30.458333333333332,500,29C541.6666666666666,27.541666666666668,558.3333333333334,-17.666666666666668,600,-16C641.6666666666666,-14.333333333333334,658.3333333333334,35.125,700,37C741.6666666666666,38.875,779.1666666666666,2.166666666666666,800,-7" transform="matrix(1,0,0,1,0,432)"></path><path d="M10,10C28.75,12.083333333333334,60.416666666666664,26.041666666666664,100,20C139.58333333333334,13.958333333333334,158.33333333333331,-21.708333333333332,200,-19C241.66666666666669,-16.291666666666668,258.3333333333333,30.916666666666668,300,33C341.6666666666667,35.083333333333336,358.3333333333333,-8.166666666666666,400,-9C441.6666666666667,-9.833333333333334,458.3333333333333,30.458333333333332,500,29C541.6666666666666,27.541666666666668,558.3333333333334,-17.666666666666668,600,-16C641.6666666666666,-14.333333333333334,658.3333333333334,35.125,700,37C741.6666666666666,38.875,779.1666666666666,2.166666666666666,800,-7" transform="matrix(1,0,0,1,0,384)"></path><path d="M10,10C28.75,12.083333333333334,60.416666666666664,26.041666666666664,100,20C139.58333333333334,13.958333333333334,158.33333333333331,-21.708333333333332,200,-19C241.66666666666669,-16.291666666666668,258.3333333333333,30.916666666666668,300,33C341.6666666666667,35.083333333333336,358.3333333333333,-8.166666666666666,400,-9C441.6666666666667,-9.833333333333334,458.3333333333333,30.458333333333332,500,29C541.6666666666666,27.541666666666668,558.3333333333334,-17.666666666666668,600,-16C641.6666666666666,-14.333333333333334,658.3333333333334,35.125,700,37C741.6666666666666,38.875,779.1666666666666,2.166666666666666,800,-7" transform="matrix(1,0,0,1,0,336)"></path><path d="M10,10C28.75,12.083333333333334,60.416666666666664,26.041666666666664,100,20C139.58333333333334,13.958333333333334,158.33333333333331,-21.708333333333332,200,-19C241.66666666666669,-16.291666666666668,258.3333333333333,30.916666666666668,300,33C341.6666666666667,35.083333333333336,358.3333333333333,-8.166666666666666,400,-9C441.6666666666667,-9.833333333333334,458.3333333333333,30.458333333333332,500,29C541.6666666666666,27.541666666666668,558.3333333333334,-17.666666666666668,600,-16C641.6666666666666,-14.333333333333334,658.3333333333334,35.125,700,37C741.6666666666666,38.875,779.1666666666666,2.166666666666666,800,-7" transform="matrix(1,0,0,1,0,288)"></path><path d="M10,10C28.75,12.083333333333334,60.416666666666664,26.041666666666664,100,20C139.58333333333334,13.958333333333334,158.33333333333331,-21.708333333333332,200,-19C241.66666666666669,-16.291666666666668,258.3333333333333,30.916666666666668,300,33C341.6666666666667,35.083333333333336,358.3333333333333,-8.166666666666666,400,-9C441.6666666666667,-9.833333333333334,458.3333333333333,30.458333333333332,500,29C541.6666666666666,27.541666666666668,558.3333333333334,-17.666666666666668,600,-16C641.6666666666666,-14.333333333333334,658.3333333333334,35.125,700,37C741.6666666666666,38.875,779.1666666666666,2.166666666666666,800,-7" transform="matrix(1,0,0,1,0,240)"></path><path d="M10,10C28.75,12.083333333333334,60.416666666666664,26.041666666666664,100,20C139.58333333333334,13.958333333333334,158.33333333333331,-21.708333333333332,200,-19C241.66666666666669,-16.291666666666668,258.3333333333333,30.916666666666668,300,33C341.6666666666667,35.083333333333336,358.3333333333333,-8.166666666666666,400,-9C441.6666666666667,-9.833333333333334,458.3333333333333,30.458333333333332,500,29C541.6666666666666,27.541666666666668,558.3333333333334,-17.666666666666668,600,-16C641.6666666666666,-14.333333333333334,658.3333333333334,35.125,700,37C741.6666666666666,38.875,779.1666666666666,2.166666666666666,800,-7" transform="matrix(1,0,0,1,0,192)"></path><path d="M10,10C28.75,12.083333333333334,60.416666666666664,26.041666666666664,100,20C139.58333333333334,13.958333333333334,158.33333333333331,-21.708333333333332,200,-19C241.66666666666669,-16.291666666666668,258.3333333333333,30.916666666666668,300,33C341.6666666666667,35.083333333333336,358.3333333333333,-8.166666666666666,400,-9C441.6666666666667,-9.833333333333334,458.3333333333333,30.458333333333332,500,29C541.6666666666666,27.541666666666668,558.3333333333334,-17.666666666666668,600,-16C641.6666666666666,-14.333333333333334,658.3333333333334,35.125,700,37C741.6666666666666,38.875,779.1666666666666,2.166666666666666,800,-7" transform="matrix(1,0,0,1,0,144)"></path><path d="M10,10C28.75,12.083333333333334,60.416666666666664,26.041666666666664,100,20C139.58333333333334,13.958333333333334,158.33333333333331,-21.708333333333332,200,-19C241.66666666666669,-16.291666666666668,258.3333333333333,30.916666666666668,300,33C341.6666666666667,35.083333333333336,358.3333333333333,-8.166666666666666,400,-9C441.6666666666667,-9.833333333333334,458.3333333333333,30.458333333333332,500,29C541.6666666666666,27.541666666666668,558.3333333333334,-17.666666666666668,600,-16C641.6666666666666,-14.333333333333334,658.3333333333334,35.125,700,37C741.6666666666666,38.875,779.1666666666666,2.166666666666666,800,-7" transform="matrix(1,0,0,1,0,96)"></path><path d="M10,10C28.75,12.083333333333334,60.416666666666664,26.041666666666664,100,20C139.58333333333334,13.958333333333334,158.33333333333331,-21.708333333333332,200,-19C241.66666666666669,-16.291666666666668,258.3333333333333,30.916666666666668,300,33C341.6666666666667,35.083333333333336,358.3333333333333,-8.166666666666666,400,-9C441.6666666666667,-9.833333333333334,458.3333333333333,30.458333333333332,500,29C541.6666666666666,27.541666666666668,558.3333333333334,-17.666666666666668,600,-16C641.6666666666666,-14.333333333333334,658.3333333333334,35.125,700,37C741.6666666666666,38.875,779.1666666666666,2.166666666666666,800,-7" transform="matrix(1,0,0,1,0,48)"></path></g></svg>